/* XPM */
static char * new [] = {
/* width height ncolors cpp [x_hot y_hot] */
"48 48 10 1 0 0",
/* colors */
" 	s none	m none	c none",
".	c #A400A600A600",
"X	c #CA00C400BA00",
"o	c #650066006700",
"O	c #AD0090005800",
"+	c #640049003200",
"@	c #60002F001100",
"#	c #DD00DF00E000",
"$	c #070005000300",
"%	s iconGray3	m white	c #afafafafafaf",
/* pixels */
"                      .Xo            oO         ",
"                    .X.+@o           O+ .       ",
"          X#..     #X+@@@@o          @@@        ",
"         X#.X+.  XX+@@@@o@$.        oo++        ",
"         #.$#oo+o+$@$@+##.@$.       +o$o        ",
"         X.ooooo+o++$+X##Xo@@.     .oo+         ",
"          Xoooo++$$$+$o####+@@.    .O+o         ",
"         X#ooo++$$+$$oX#XX#X+$@    XO$.         ",
"       XX..++$$$+$$oX#X..##XX+$o   OO@          ",
"     XXO@.$+$$+$$o.##..X##X#X$@$o XO@o          ",
"   XXO@@Oo$+$+$$.###########XX.@@oOO@.          ",
" XXO+@@@Oo$+$$.##########X###X$O$@X++           ",
"#X@@+@+OX.+$o#########XX###X#XXXoOO@o           ",
"##O+@OX###o##########....###X#XXXOO$.           ",
".#O+@O##############.X.#X#XXXXXXXX+@$.          ",
" X#O+@#####X#.X####.#X.#X..X#X#XXO@$@@          ",
"  ##O@@###..o####.XX.##X...X#XXXXO$.@$+         ",
"   #X+++###.###.##..###.....XXXXO@o..@$+        ",
"   X#O@+o###X.#X#..XX..o.XX..XXXO@...o@$o       ",
"    ##O+@X###..#..#..XXXX.o.o#$OO$.X..o@$o      ",
"     #X@@@####$.XXX...X.oo.##.XO+oX....+$$O     ",
"     .#X+@+###..X#.......#XX..XO@..X....+@$.    ",
"      X#O@@o###.o#.#.....XX...OO+.XX.....$@$.   ",
"       #X+@@X###..#.o.oX#..o.XO@oX.XX.....$@$%  ",
"       .#X@@@###X...X##X..o$.XO@.XX.X.....o@$@. ",
"        X#O@@o###.o#X#...X..XO+oX.XX.X.....@$$+ ",
"         ##+@@.######......X#O@oX#.X.....o+$$$. ",
"          #X@@$X###...o#o..XXO$#XXX......$$$$.  ",
"          X#O@@@###...X.X.#XO+oXXXX....o$@$$.   ",
"           X#O@@o###oX...#XXO@.XXXX....$@$$.    ",
"            #X@@@.##Xo.####OO@X$XXX..o$$$$.     ",
"            .#O@@$###X####XX$.$XX..o+$$$$.      ",
"             X#O@@$######X#OoX..o+$$$$$$.       ",
"              XX@@@o######X+oo$$oo+$$@$o        ",
"               #X@@$.####o.$oo.X.o$$@$o         ",
"               X#O@@$X###XX#XX$.+$@$$.          ",
"                X#+@@$#####X#X.$$$$$o           ",
"                 #X@@@o#X#X#X.$$@@$.            ",
"                 .#O@@$.###X.$$@$$o             ",
"                  X#+@@$.##o$$@$$.              ",
"                   #X@@@+#o$@@$$o               ",
"                   .#X@@$@$$@$$o                ",
"                    X#O@@$@@$$o                 ",
"                     XX@@@@$$o                  ",
"                      #X@$@$o                   ",
"                      X#O$$o                    ",
"                       X#+o                     ",
"                        X.                      "};
